<?xml version="1.0" encoding="utf-8"?>
<!-- Generator: Adobe Illustrator 16.0.0, SVG Export Plug-In . SVG Version: 6.00 Build 0)  -->
<!DOCTYPE svg PUBLIC "-//W3C//DTD SVG 1.1//EN" "http://www.w3.org/Graphics/SVG/1.1/DTD/svg11.dtd">
<svg version="1.1" id="Layer_1" xmlns="http://www.w3.org/2000/svg" xmlns:xlink="http://www.w3.org/1999/xlink" x="0px" y="0px"
	 width="960px" height="200px" viewBox="0 0 960 200" enable-background="new 0 0 960 200" xml:space="preserve">
<g>
	<path fill-rule="evenodd" clip-rule="evenodd" fill="#E53E16" d="M100.495,62.151c-0.081-3.247-0.187-6.011-0.21-8.776
		c-0.047-5.594,1.382-10.837,3.641-15.928c2.775-6.259,7-11.351,12.329-15.516c3.166-2.476,6.709-4.36,10.503-5.817
		c4.401-1.69,8.955-2.429,13.602-2.523c7.159-0.147,13.971,1.333,20.324,4.795c6.624,3.608,11.892,8.634,15.752,15.063
		c1.449,2.412,2.451,5.106,3.536,7.721c2.441,5.883,2.562,12.106,1.99,18.267c-0.563,6.079-2.673,11.776-6.007,16.956
		c-1.949,3.027-4.198,5.804-6.88,8.228c-1.116,1.011-0.966,1.374,0.506,1.94c8.176,3.153,14.09,8.665,17.73,16.69
		c2.445,5.396,2.772,11.05,2.165,16.737c-0.61,5.706-3.04,10.764-6.73,15.208c-4.211,5.067-9.533,8.365-15.837,10.129
		c-3.992,1.118-8.117,1.377-12.149,0.746c-5.547-0.87-10.706-2.937-15.094-6.61c-0.356-0.302-0.805-0.487-1.33-0.795
		c-6.253,18.385-18.142,31.439-35.948,38.772c-13.441,5.536-27.428,6.168-41.182,1.757c-31.111-9.986-45.632-38.16-43.32-64.622
		c0.827-9.457,3.778-18.331,8.788-26.472c5.049-8.2,11.615-14.915,19.742-20.05c8.051-5.087,16.842-8.063,26.332-9.142
		C82.247,57.827,91.436,59.21,100.495,62.151z M48.376,120.198c-0.418,16.841,13.597,31.01,30.768,31.2
		c8.721,0.097,16.314-3.179,22.447-9.393c5.902-5.98,8.913-13.388,8.92-21.73c0.008-8.335-2.945-15.784-8.851-21.747
		c-6.018-6.075-13.403-9.345-22.057-9.436C62.307,88.913,47.921,103.477,48.376,120.198z M141.147,33.848
		c-11.311-0.435-20.715,9.922-20.705,20.573c0.012,11.415,9.634,20.917,20.679,20.923c11.322,0.004,20.872-9.322,20.883-20.884
		C162.014,43.393,152.548,33.413,141.147,33.848z M174.756,115.472c0.064-7.854-6.466-15.676-15.776-15.584
		c-8.8,0.084-15.635,6.942-15.549,15.792c0.087,9.047,7.363,15.501,15.651,15.525C167.709,131.228,174.888,123.803,174.756,115.472z
		"/>
	<path fill-rule="evenodd" clip-rule="evenodd" fill="#2A2A2A" d="M564.382,75.441c0.257-4.365,0.09-8.491,0.12-12.61
		c0.032-4.08,0.006-8.161,0.006-12.181c1.586-0.431,14.762-0.502,16.998-0.118c0.033,0.738,0.1,1.523,0.1,2.308
		c0.007,17.485,0.026,34.97-0.016,52.455c-0.006,2.777-0.232,5.559-0.465,8.33c-0.336,4.004-1.782,7.711-3.59,11.224
		c-2.606,5.067-6.286,9.303-10.841,12.764c-4.353,3.31-9.234,5.555-14.531,6.703c-4.553,0.987-9.206,1.025-13.86,0.362
		c-6.517-0.932-12.332-3.513-17.477-7.519c-4.851-3.775-8.513-8.539-11.103-14.154c-1.436-3.113-2.236-6.397-2.912-9.702
		c-0.416-2.042-0.396-4.192-0.387-6.297c0.022-4.288,0.773-8.491,2.255-12.502c2.177-5.887,5.615-10.956,10.316-15.168
		c4.12-3.688,8.854-6.286,14.07-7.946c2.273-0.723,4.707-1.098,7.096-1.27c2.889-0.208,5.818-0.193,8.708,0.016
		c3.337,0.241,6.543,1.229,9.615,2.552c1.472,0.633,2.88,1.409,4.325,2.105C563.23,75,563.68,75.153,564.382,75.441z
		 M564.552,106.757c-0.088-1.054-0.008-2.774-0.415-4.372c-1.142-4.489-3.141-8.505-6.574-11.8
		c-6.021-5.774-14.813-7.361-22.268-3.38c-7.657,4.091-11.13,10.912-11.837,19.324c-0.155,1.852,0.14,3.673,0.564,5.511
		c0.551,2.371,1.267,4.638,2.427,6.785c2.03,3.754,4.928,6.718,8.659,8.673c3.495,1.829,7.271,2.493,11.315,1.972
		c3.827-0.493,7.158-1.887,10.034-4.329C561.917,120.504,564.536,114.528,564.552,106.757z"/>
	<path fill-rule="evenodd" clip-rule="evenodd" fill="#2A2A2A" d="M935.502,114.393c-18.53,0-36.979,0-55.493,0
		c-0.023,0.494-0.136,0.831-0.035,1.088c1.924,4.932,4.942,8.938,9.729,11.441c4.058,2.122,8.403,2.528,12.809,1.816
		c3.517-0.57,6.714-2.107,9.335-4.601c0.915-0.872,1.85-1.259,3.126-1.241c5.271,0.059,10.542,0.023,15.808,0.023
		c0.607,0,1.213,0,1.888,0c-4.942,13.056-21.104,24.992-40.551,21.37c-22.184-4.128-33.39-23.764-30.592-42.664
		c1.642-11.073,7.442-19.916,16.931-26.06c8.488-5.496,17.863-7.269,27.717-5.264C928.266,74.8,939.677,95.753,935.502,114.393z
		 M917.567,99.038c-2.418-9.061-11.209-15.154-21.558-13.821c-4.771,0.615-8.973,2.631-12.128,6.453
		c-1.79,2.17-3.279,4.49-3.952,7.369C892.576,99.038,904.998,99.038,917.567,99.038z"/>
	<path fill-rule="evenodd" clip-rule="evenodd" fill="#2A2A2A" d="M725.271,145.016c-5.775,0-11.2,0-16.806,0
		c-0.038-0.844-0.096-1.565-0.096-2.287c-0.008-11.471,0.054-22.943-0.03-34.419c-0.042-5.993-1.788-11.477-5.884-16
		c-4.461-4.923-9.971-7.362-16.701-6.664c-6.558,0.677-11.38,4.074-14.895,9.515c-2.628,4.067-3.771,8.545-3.764,13.361
		c0.012,11.347,0.004,22.693,0.004,34.046c0,0.737,0,1.474,0,2.162c-1.447,0.506-14.695,0.604-16.717,0.173
		c-0.419-1.393-0.487-92.497-0.047-94.487c5.465,0,10.958,0,16.716,0c0.018,2.08,0.036,4.16,0.046,6.24
		c0.008,2.108,0.002,4.216,0.002,6.326c0,2.044,0,4.092,0,6.139c0,2.099,0,4.198,0,6.363c1.647,0.131,2.706-0.887,3.848-1.483
		c3.101-1.622,6.386-2.609,9.771-3.325c2.677-0.568,5.398-0.667,8.134-0.6c7.096,0.175,13.591,2.26,19.521,6.126
		c6.277,4.096,10.929,9.634,13.9,16.474c1.828,4.201,2.996,8.639,2.996,13.292c0.006,12.281,0.002,24.558,0.002,36.837
		C725.271,143.477,725.271,144.147,725.271,145.016z"/>
	<path fill-rule="evenodd" clip-rule="evenodd" fill="#2A2A2A" d="M809.298,145.023c-5.874,0-11.357,0-17.107,0
		c0-1.867,0-3.623,0-5.726c-1.437,0.702-2.538,1.211-3.606,1.772c-3.309,1.743-6.808,2.861-10.491,3.498
		c-4.698,0.812-9.396,0.735-14.042-0.16c-4.708-0.904-9.11-2.743-13.11-5.419c-5.71-3.824-10.145-8.808-13.154-15.006
		c-1.491-3.067-2.529-6.276-3.16-9.642c-0.563-3.018-0.67-6.038-0.544-9.072c0.166-3.985,1.028-7.842,2.495-11.554
		c2.992-7.587,7.946-13.593,14.794-17.993c2.543-1.631,5.279-2.871,8.156-3.893c3.857-1.368,7.808-1.903,11.822-1.967
		c5.047-0.079,9.959,0.795,14.65,2.756c6.235,2.606,11.432,6.56,15.533,11.922c2.912,3.808,5.013,8.005,6.338,12.657
		c1.134,3.991,1.429,8.012,1.429,12.102c-0.004,11.038-0.002,22.072-0.002,33.112C809.298,143.202,809.298,143.998,809.298,145.023z
		 M792.223,107.847c-0.069-4.696-1.162-8.54-3.144-12.224c-3.934-7.306-13.213-12.438-22.118-9.97
		c-4.474,1.241-8.087,3.624-10.9,7.235c-2.671,3.427-4.254,7.281-4.739,11.668c-0.572,5.167,0.23,10.043,2.829,14.466
		c3.377,5.747,8.188,9.567,15.101,10.431c5.491,0.686,10.347-0.687,14.547-4.096C789.466,120.745,792.036,114.563,792.223,107.847z"
		/>
	<path fill-rule="evenodd" clip-rule="evenodd" fill="#2A2A2A" d="M413.658,107.338c0.648,20.364-16.684,37.83-37.497,37.818
		c-20.636-0.013-37.721-16.948-37.68-37.718c0.04-20.329,16.439-37.561,37.597-37.619
		C396.986,69.763,414.093,86.975,413.658,107.338z M396.819,107.011c-0.136-0.873-0.417-2.266-0.562-3.671
		c-0.344-3.352-1.715-6.297-3.524-9.063c-3.212-4.906-7.765-7.931-13.474-9.028c-4.064-0.781-8.107-0.113-11.729,1.832
		c-7.616,4.088-11.362,10.79-11.948,19.251c-0.318,4.596,0.844,8.97,3.237,12.943c3.358,5.58,8.031,9.226,14.677,10.141
		c5.321,0.734,10.093-0.499,14.305-3.697C393.774,121.184,396.354,114.896,396.819,107.011z"/>
	<path fill-rule="evenodd" clip-rule="evenodd" fill="#2A2A2A" d="M422.429,69.703c5.759,0,11.249,0,16.93,0
		c0.047,0.874,0.122,1.658,0.122,2.442c0.007,11.226-0.045,22.45,0.034,33.677c0.025,3.649,0.368,7.292,1.89,10.707
		c2.378,5.339,5.976,9.523,11.502,11.701c6.292,2.483,12.355,1.86,18.022-1.896c2.997-1.984,5.278-4.625,6.952-7.815
		c1.847-3.515,2.756-7.204,2.73-11.206c-0.078-11.722-0.028-23.444-0.028-35.166c0-0.737,0-1.474,0-2.171
		c1.397-0.458,14.67-0.583,17.272-0.177c0.036,0.495,0.108,1.032,0.108,1.567c0.007,12.156,0.21,24.316-0.078,36.467
		c-0.154,6.577-1.77,12.92-5.265,18.707c-3.232,5.35-7.389,9.722-12.675,12.999c-4.13,2.559-8.589,4.25-13.427,5.05
		c-4.78,0.789-9.541,0.733-14.228-0.213c-4.679-0.947-9.044-2.831-13.05-5.517c-6.342-4.257-10.922-9.946-13.956-16.896
		c-0.711-1.631-1.132-3.393-1.625-5.112c-1.17-4.09-1.264-8.284-1.247-12.502c0.047-10.731,0.015-21.459,0.015-32.19
		C422.429,71.42,422.429,70.681,422.429,69.703z"/>
	<path fill-rule="evenodd" clip-rule="evenodd" fill="#2A2A2A" d="M285.408,119.635c6.125,0,12.131,0,18.406,0
		c-1.82,5.941-5.057,10.821-9.377,14.94c-7.341,7.002-16.13,10.551-26.332,10.549c-20.906-0.005-38.065-17.127-37.514-38.675
		c0.513-20.024,16.602-36.515,37.663-36.625c19.188-0.101,32.781,14.324,35.38,25.707c-0.561,0.036-1.1,0.098-1.639,0.1
		c-4.837,0.006-9.675-0.02-14.513,0.022c-1.145,0.01-1.884-0.251-2.577-1.32c-2.601-4.008-6.201-6.842-10.766-8.357
		c-4.01-1.33-8.061-1.353-12.024,0.091c-7.167,2.613-11.704,7.816-13.499,15.1c-2.357,9.572,0.039,17.914,7.726,24.371
		c2.526,2.121,5.54,3.352,8.885,3.862c3.403,0.517,6.65,0.188,9.837-0.986c4.148-1.533,7.324-4.286,9.773-7.926
		C285.01,120.23,285.181,119.974,285.408,119.635z"/>
	<path fill-rule="evenodd" clip-rule="evenodd" fill="#2A2A2A" d="M590.401,120.869c0.479-0.082,0.716-0.154,0.953-0.154
		c4.899-0.01,9.799-0.022,14.698-0.006c1.365,0.004,1.38,0.103,1.882,1.523c0.64,1.812,1.425,3.527,2.771,4.976
		c3.95,4.267,10.742,3.387,13.321-1.922c1.274-2.629,0.182-6.311-2.363-7.874c-1.724-1.06-3.598-1.921-5.479-2.686
		c-4.283-1.737-8.749-3.018-12.844-5.225c-5.12-2.76-8.733-6.855-9.848-12.56c-2.152-11.022,2.29-20.1,12.615-25.001
		c3.846-1.825,7.912-2.123,12.103-1.981c3.824,0.128,7.333,1.154,10.531,3.143c5.25,3.267,8.81,7.859,10.28,13.936
		c0.232,0.956,0.248,1.965,0.368,2.948c0.091,0.751-0.196,1.199-0.989,1.241c-0.187,0.012-0.371,0.024-0.558,0.024
		c-4.527,0-9.052,0-13.581-0.01c-0.303,0-0.607-0.076-0.964-0.123c-0.244-0.568-0.55-1.115-0.715-1.696
		c-1.188-4.229-6.895-6.134-10.915-2.498c-2.3,2.079-2.424,6.014,0.315,8.153c1.789,1.398,3.838,2.229,5.976,2.886
		c4.299,1.321,8.554,2.762,12.642,4.68c5.339,2.505,8.746,6.64,10.192,12.244c0.651,2.536,0.928,5.217,0.509,7.927
		c-0.41,2.641-0.899,5.206-2.048,7.655c-1.909,4.072-4.8,7.26-8.365,9.918c-5.464,4.065-11.713,5.301-18.278,4.541
		c-8.771-1.018-15.605-5.275-19.613-13.354C591.376,128.298,590.75,124.681,590.401,120.869z"/>
	<path fill-rule="evenodd" clip-rule="evenodd" fill="#2A2A2A" d="M312.585,145.436c0-31.692,0-63.274,0-94.979
		c5.943,0,11.798,0,17.779,0c0,31.623,0,63.204,0,94.788C329.06,145.649,316.428,145.803,312.585,145.436z"/>
	<path fill-rule="evenodd" clip-rule="evenodd" fill="#2A2A2A" d="M855.36,84.646c-2.38,0.621-4.628,1.045-6.758,1.8
		c-3.707,1.315-6.63,3.785-8.933,6.933c-3.043,4.16-4.564,8.814-4.534,14.022c0.068,11.719,0.021,23.438,0.021,35.16
		c0,0.728,0,1.455,0,2.341c-0.793,0.054-1.391,0.13-1.991,0.13c-4.34,0.011-8.682,0.016-13.021,0.003
		c-2.015-0.005-2.066-0.049-2.066-2.111c-0.006-12.463-0.169-24.93,0.052-37.391c0.179-10.425,4.544-19.12,12.174-26.149
		c3.716-3.423,8.011-5.891,12.805-7.617c3.607-1.297,7.309-1.707,11.042-2.155c0.351-0.041,0.718,0.062,1.047,0.094
		C855.601,71.158,855.694,82.489,855.36,84.646z"/>
</g>
</svg>
